<?xml version="1.0" encoding="UTF-8" standalone="no"?>
<!DOCTYPE svg PUBLIC "-//W3C//DTD SVG 1.1//EN" "http://www.w3.org/Graphics/SVG/1.1/DTD/svg11.dtd">
<svg width="100%" height="100%" viewBox="0 0 1187 970" version="1.1" xmlns="http://www.w3.org/2000/svg" xmlns:xlink="http://www.w3.org/1999/xlink" xml:space="preserve" xmlns:serif="http://www.serif.com/" style="fill-rule:evenodd;clip-rule:evenodd;stroke-linejoin:round;stroke-miterlimit:2;">
    <g transform="matrix(1,0,0,1,-415.261,-488.167)">
        <g transform="matrix(1,0,0,1,8.65152,233.636)">
            <path d="M1044.76,411.012C1070.82,388.672 1084.5,352.238 1082.14,317.988C1072.89,356.512 1043.19,387.078 1010.27,409.109C992.082,421.289 927.07,458.629 906.715,467.27C856.613,488.512 767.242,612.43 695.867,721.398C650.879,790.078 613.035,852.828 596.688,880.18C569.414,925.801 546.535,971.98 528.07,1019.41C528.07,1019.41 561.438,986.531 578.461,983.961C570.543,982.77 562.285,983.961 555.023,987.328C566.594,975.91 584.672,975.238 600.93,975.27C589.266,969.66 574.961,969.871 563.473,975.84C581.91,953.969 606.07,936.98 632.883,927.012C640.488,924.191 648.516,921.891 656.605,922.5C664.699,923.102 672.922,927.078 676.789,934.219C675.219,924.672 666.617,917.488 657.355,914.691C648.094,911.879 638.176,912.59 628.523,913.328C638.305,896.629 661.176,894.539 680.465,892.941C699.754,891.352 722.117,887.73 731.461,870.781C713.402,877.211 694.125,880.219 674.961,879.59C691.055,875.621 707.32,871.602 722.074,864.039C736.828,856.48 750.156,844.961 756.648,829.699C743.586,848.25 718.195,852.199 695.629,854.559C741.605,840.66 780.309,804.551 797.363,759.648C804.398,741.129 808.625,720.219 822.051,706.102C846.117,692.5 857.863,663.141 871.086,638.039C882.023,617.289 895.535,597.891 911.219,580.441C888.703,587.93 867.73,600 849.949,615.711C854.262,600.262 868.574,589.801 882.969,582.719C897.363,575.641 913.066,570.469 925.152,559.922C939.027,547.809 946.457,530.078 952.875,512.82C946.371,520.148 933.559,519.711 923.781,520.398C909.891,521.371 895.641,523.43 883.617,530.461C923.922,504.559 973.426,495.98 1013.82,470.211C1031.16,459.141 1040.09,441.93 1045.64,422.109C1040.86,428.441 1036,434.77 1030.13,440.102C1012.17,456.41 987.059,461.621 963.242,466.199C984.34,461.219 1001.77,447.859 1018.23,433.75C1027.07,426.172 1035.92,418.59 1044.76,411.012" style="fill:rgb(111,0,0);fill-rule:nonzero;"/>
        </g>
        <g transform="matrix(1,0,0,1,8.65152,233.636)">
            <path d="M1096.05,254.531C1073.47,296.91 1025.66,314.891 982.453,335.84C958.355,347.52 933.008,351.309 909.797,364.672C892.688,374.52 871.785,385.941 863.211,403.328C867.27,387.16 869.195,370.449 868.875,353.789C835.23,386.059 783.535,390.77 744.961,416.949C701.488,446.449 679.469,504.32 692.332,555.262C680.488,534.488 677.824,508.691 685.176,485.941C652.602,510.672 618.625,537.16 602.902,574.922C592.094,600.871 590.949,630 580.539,656.121C572.297,676.809 558.098,698.559 565.785,719.461C547.586,687.738 587.316,648.262 576.516,613.328C571.172,643.371 535.973,655.781 513.086,675.961C475.445,709.141 472.297,775.648 507.664,811.238C492.129,797.871 471.406,790.68 450.926,791.57C468.438,791.16 485.707,801.969 492.977,817.91C502.656,839.129 495.551,866.641 509.973,884.969C497.762,877.449 485.203,870.199 471.508,865.961C457.809,861.711 442.73,860.641 429.23,865.469C421.023,868.41 413.813,873.328 406.609,878.309C420.887,871.559 437.266,869.191 452.824,871.988C474.609,875.898 494.379,889.859 505.355,909.09C482.484,884.211 445.098,873.789 412.656,883.238C448.742,878.551 487.648,900.328 500.93,934.211C489.109,922.762 475.664,910.602 459.223,910.121C485.184,920.41 495.668,947.18 497.543,950.27C497.871,950.809 498.191,951.359 498.504,951.898C510.375,972.52 511.355,997.66 501.832,1019.46C495.477,1034.02 490.547,1047.18 485.902,1062.89C482.582,1074.13 468.922,1164.7 468.922,1164.7L517.883,1095.07C517.883,1095.07 505.914,1071.65 508.043,1063.81C508.043,1063.81 510.063,1048.42 519.035,1024.72C532.656,988.73 557.98,934.09 582.426,889.09C653.348,758.531 817.168,532.281 850.516,498.98C890.328,459.238 932.289,444.609 960.387,427.238C1040.32,377.809 1071.19,365.039 1096.05,254.531" style="fill:rgb(111,0,0);fill-rule:nonzero;"/>
        </g>
        <g transform="matrix(1,0,0,1,8.65152,233.636)">
            <path d="M483.34,1165.24C635.563,1173.44 762.992,1105.35 906.121,1069.14C946.211,1059 1033.98,1040.58 1028.3,1107.54C1026.05,1134.08 989.801,1151.48 992.703,1177.93C1001.24,1255.68 1232.78,1093.19 1260.84,1083.18C1369.2,1044.57 1483.94,1093.06 1593.39,1064.5C1519.29,1089.59 1440.92,1074.31 1364.63,1077.82C1293.14,1081.12 1236.31,1106.98 1176.04,1145.48C1136.09,1171 1034.43,1257.97 986.973,1209C974.516,1196.14 972.164,1179.03 976.82,1162.26C982.57,1141.56 1010.81,1126.14 1010.4,1103.94C1009.46,1054.44 927.359,1081.02 898.617,1088.35C759.637,1123.77 630.699,1184.03 483.34,1165.24" style="fill:rgb(111,0,0);fill-rule:nonzero;"/>
        </g>
    </g>
</svg>
