<?xml version="1.0" encoding="utf-8"?><!-- Generator: Adobe Illustrator 20.1.0, SVG Export Plug-In . SVG Version: 6.00 Build 0)  --><svg xmlns="http://www.w3.org/2000/svg" xmlns:xlink="http://www.w3.org/1999/xlink" viewBox="0 0 50 50" width="150px" height="150px"><style type="text/css">.st0{fill:none;stroke:#000000;stroke-width:2;stroke-miterlimit:10;}.st1{fill:none;stroke:#000000;stroke-width:2;stroke-linecap:round;stroke-miterlimit:10;}.st2{fill:none;stroke:#000000;stroke-width:2;stroke-linecap:round;stroke-linejoin:round;stroke-miterlimit:10;}.st3{fill:none;stroke:#000000;stroke-linecap:round;stroke-miterlimit:10;}.st4{fill:none;stroke:#000000;stroke-width:3;stroke-linecap:round;stroke-miterlimit:10;}.st5{fill:#FFFFFF;}.st6{stroke:#000000;stroke-width:2;stroke-miterlimit:10;}.st7{fill:none;stroke:#000000;stroke-width:2;stroke-linejoin:round;stroke-miterlimit:10;}.st8{fill:none;}.st9{fill:none;stroke:#000000;stroke-width:0;stroke-linecap:round;stroke-linejoin:round;}</style><path d="M40.1,33c-1.2-1.6-2.4-2.9-2.4-5.9v-9.9c0-4.2,0.3-8.1-2.8-11C32.4,3.8,28.4,3,25.3,3c-6.1,0-12.8,2.3-14.2,9.8c-0.2,0.8,0.4,1.2,0.9,1.3l6.2,0.6c0.6,0,1-0.6,1.2-1.2c0.5-2.6,2.7-3.9,5.1-3.9c1.3,0,2.8,0.5,3.6,1.7c0.9,1.3,0.7,3.1,0.7,4.6v0.9c-3.7,0.4-8.5,0.7-12,2.2c-4,1.7-6.8,5.2-6.8,10.4c0,6.6,4.2,9.9,9.5,9.9c4.5,0,7-1.1,10.5-4.7c1.2,1.7,1.6,2.5,3.7,4.3c0.5,0.3,1.1,0.2,1.5-0.2v0.1c1.3-1.1,3.6-3.2,4.9-4.3C40.6,34.2,40.5,33.5,40.1,33z M27.6,30.1c-1,1.8-2.6,2.9-4.4,2.9c-2.4,0-3.9-1.8-3.9-4.6c0-4.7,3.7-6.1,7.7-6.4c0.6,0,1.1,0,1.7,0v1.4C28.7,25.8,28.8,27.9,27.6,30.1z"/><path d="M44.6,36.6c-1.6,0-3.5,0.4-4.9,1.4c-0.4,0.3-0.4,0.7,0.1,0.7c1.6-0.2,5.2-0.7,5.9,0.2c0.6,0.8-0.7,4.2-1.3,5.8c-0.2,0.5,0.2,0.6,0.6,0.3c2.7-2.3,3.4-7,2.9-7.6C47.6,36.9,46.2,36.6,44.6,36.6z"/><path d="M2.2,37.5c-0.3,0-0.5,0.5-0.1,0.8c6,5.4,13.9,8.7,22.8,8.7c6.3,0,13.6-2,18.7-5.7c0.8-0.6,0.1-1.6-0.7-1.2c-5.7,2.4-11.8,3.6-17.4,3.6c-8.3,0-16.3-2.3-22.8-6C2.5,37.5,2.3,37.5,2.2,37.5z"/></svg>