<?xml version="1.0" encoding="iso-8859-1"?><!-- Generator: Adobe Illustrator 23.0.1, SVG Export Plug-In . SVG Version: 6.00 Build 0)  --><svg xmlns="http://www.w3.org/2000/svg" xmlns:xlink="http://www.w3.org/1999/xlink" viewBox="0 0 30 30" width="150px" height="150px"><g><path d="M15.089,9.365c-2.164,0-3.241,1.633-3.241,3.647s0.976,3.647,3.241,3.647c2.265,0,3.241-1.633,3.241-3.647S17.253,9.365,15.089,9.365z"/><path d="M24,4H6C4.895,4,4,4.895,4,6v18c0,1.105,0.895,2,2,2h18c1.105,0,2-0.895,2-2V6C26,4.895,25.105,4,24,4z M15.065,22c-5.172,0-4.829-2.82-4.829-3.122l1.913,0.218c0.26,1.227,1.304,1.56,2.916,1.56c3.301,0,3.104-2.506,3.104-3.92c0,0-1.072,1.279-3.213,1.279c-2.141,0-5.146-1.092-5.146-5.001C9.81,9.358,12.554,8,14.873,8c2.319,0,3.464,1.467,3.464,1.467V8.216h1.852c0,0,0,7.449,0,8.499C20.189,18.098,20.404,22,15.065,22z"/></g></svg>